<?xml version="1.0" encoding="UTF-8" standalone="no"?>
<!DOCTYPE svg PUBLIC "-//W3C//DTD SVG 1.1//EN"
 "http://www.w3.org/Graphics/SVG/1.1/DTD/svg11.dtd">
<!-- Generated by graphviz version 2.47.0 (20210316.0004)
 -->
<!-- Title: dependencies Pages: 1 -->
<svg width="504pt" height="211pt"
 viewBox="0.00 0.00 504.00 211.00" xmlns="http://www.w3.org/2000/svg" xmlns:xlink="http://www.w3.org/1999/xlink">
<g id="graph0" class="graph" transform="scale(1 1) rotate(0) translate(4 207)">
<title>dependencies</title>
<polygon fill="white" stroke="transparent" points="-4,4 -4,-207 500,-207 500,4 -4,4"/>
<text text-anchor="start" x="227.01" y="-42.4" font-family="Times-12" font-weight="bold" font-size="14.00">Legend</text>
<polygon fill="#ffffb3" stroke="transparent" points="14,-10 14,-30 34,-30 34,-10 14,-10"/>
<text text-anchor="start" x="37.63" y="-15.4" font-family="Times-12" font-size="14.00"> &#160;Declarations</text>
<polygon fill="#8dd3c7" stroke="transparent" points="127,-10 127,-30 147,-30 147,-10 127,-10"/>
<text text-anchor="start" x="150.73" y="-15.4" font-family="Times-12" font-size="14.00"> &#160;Module</text>
<polygon fill="#80b1d3" stroke="transparent" points="213,-10 213,-30 233,-30 233,-10 213,-10"/>
<text text-anchor="start" x="236.78" y="-15.4" font-family="Times-12" font-size="14.00"> &#160;Bootstrap</text>
<polygon fill="#fdb462" stroke="transparent" points="310,-10 310,-30 330,-30 330,-10 310,-10"/>
<text text-anchor="start" x="333.67" y="-15.4" font-family="Times-12" font-size="14.00"> &#160;Providers</text>
<polygon fill="#fb8072" stroke="transparent" points="406,-10 406,-30 426,-30 426,-10 406,-10"/>
<text text-anchor="start" x="429.73" y="-15.4" font-family="Times-12" font-size="14.00"> &#160;Exports</text>
<g id="clust1" class="cluster">
<title>cluster_AppModule</title>
<polygon fill="none" stroke="black" stroke-dasharray="1,5" points="14,-70 14,-195 482,-195 482,-70 14,-70"/>
</g>
<g id="clust3" class="cluster">
<title>cluster_AppModule_imports</title>
<polygon fill="none" stroke="black" points="22,-78 22,-130 474,-130 474,-78 22,-78"/>
</g>
<!-- AuthModule -->
<g id="node1" class="node">
<title>AuthModule</title>
<polygon fill="#8dd3c7" stroke="black" points="465.55,-122 462.55,-126 441.55,-126 438.55,-122 378.45,-122 378.45,-86 465.55,-86 465.55,-122"/>
<text text-anchor="middle" x="422" y="-99.8" font-family="Times,serif" font-size="14.00">AuthModule</text>
</g>
<!-- AppModule -->
<g id="node5" class="node">
<title>AppModule</title>
<polygon fill="#8dd3c7" stroke="black" points="297.66,-187 294.66,-191 273.66,-191 270.66,-187 214.34,-187 214.34,-151 297.66,-151 297.66,-187"/>
<text text-anchor="middle" x="256" y="-164.8" font-family="Times,serif" font-size="14.00">AppModule</text>
</g>
<!-- AuthModule&#45;&gt;AppModule -->
<g id="edge1" class="edge">
<title>AuthModule&#45;&gt;AppModule</title>
<path fill="none" stroke="black" d="M422,-122.11C422,-141.34 422,-169 422,-169 422,-169 307.89,-169 307.89,-169"/>
<polygon fill="black" stroke="black" points="307.89,-165.5 297.89,-169 307.89,-172.5 307.89,-165.5"/>
</g>
<!-- RoleModule -->
<g id="node2" class="node">
<title>RoleModule</title>
<polygon fill="#8dd3c7" stroke="black" points="359.99,-122 356.99,-126 335.99,-126 332.99,-122 274.01,-122 274.01,-86 359.99,-86 359.99,-122"/>
<text text-anchor="middle" x="317" y="-99.8" font-family="Times,serif" font-size="14.00">RoleModule</text>
</g>
<!-- RoleModule&#45;&gt;AppModule -->
<g id="edge2" class="edge">
<title>RoleModule&#45;&gt;AppModule</title>
<path fill="none" stroke="black" d="M285.92,-122.11C285.92,-122.11 285.92,-140.99 285.92,-140.99"/>
<polygon fill="black" stroke="black" points="282.42,-140.99 285.92,-150.99 289.42,-140.99 282.42,-140.99"/>
</g>
<!-- RoomTypeModule -->
<g id="node3" class="node">
<title>RoomTypeModule</title>
<polygon fill="#8dd3c7" stroke="black" points="256.05,-122 253.05,-126 232.05,-126 229.05,-122 133.95,-122 133.95,-86 256.05,-86 256.05,-122"/>
<text text-anchor="middle" x="195" y="-99.8" font-family="Times,serif" font-size="14.00">RoomTypeModule</text>
</g>
<!-- RoomTypeModule&#45;&gt;AppModule -->
<g id="edge3" class="edge">
<title>RoomTypeModule&#45;&gt;AppModule</title>
<path fill="none" stroke="black" d="M235.22,-122.11C235.22,-122.11 235.22,-140.99 235.22,-140.99"/>
<polygon fill="black" stroke="black" points="231.72,-140.99 235.22,-150.99 238.72,-140.99 231.72,-140.99"/>
</g>
<!-- UserModule -->
<g id="node4" class="node">
<title>UserModule</title>
<polygon fill="#8dd3c7" stroke="black" points="115.98,-122 112.98,-126 91.98,-126 88.98,-122 30.02,-122 30.02,-86 115.98,-86 115.98,-122"/>
<text text-anchor="middle" x="73" y="-99.8" font-family="Times,serif" font-size="14.00">UserModule</text>
</g>
<!-- UserModule&#45;&gt;AppModule -->
<g id="edge4" class="edge">
<title>UserModule&#45;&gt;AppModule</title>
<path fill="none" stroke="black" d="M73,-122.11C73,-141.34 73,-169 73,-169 73,-169 204.02,-169 204.02,-169"/>
<polygon fill="black" stroke="black" points="204.02,-172.5 214.02,-169 204.02,-165.5 204.02,-172.5"/>
</g>
</g>
</svg>
